<svg width="386" height="390" viewBox="0 0 386 390" fill="none" xmlns="http://www.w3.org/2000/svg">
<path d="M193 189.8C245.5 189.8 287.5 147.8 287.5 95.3C287.5 42.8 245.5 0.800003 193 0.800003C140.5 0.800003 98.5 42.8 98.5 95.3C98.5 147.8 140.5 189.8 193 189.8ZM193 35.8C226.2 35.8 252.5 62 252.5 95.3C252.5 128.6 226.3 154.8 193 154.8C159.7 154.8 133.5 128.6 133.5 95.3C133.5 62 159.8 35.8 193 35.8Z" fill="black"/>
<path d="M231.5 217.8H154.5C68.7 217.8 0.5 287.8 0.5 371.8C0.5 382.3 7.5 389.3 18 389.3C28.5 389.3 35.5 382.3 35.5 371.8C35.5 305.3 89.7 252.8 154.5 252.8H231.5C298 252.8 350.5 307 350.5 371.8C350.5 382.3 357.5 389.3 368 389.3C378.5 389.3 385.5 382.3 385.5 371.8C385.5 287.8 315.5 217.8 231.5 217.8Z" fill="black"/>
</svg>
