<svg width="380" height="423" viewBox="0 0 380 423" fill="none" xmlns="http://www.w3.org/2000/svg">
<path d="M376.7 349.4L347.5 116C346.9 110.2 341.7 105.5 335.8 105.5H260V73.4C260 34.9 228.5 3.39999 190 3.39999C151.5 3.39999 120 34.9 120 73.4V105.5H44.2C38.4 105.5 33.1 110.2 32.5 116L3.3 349.3V350.5C3.3 389 34.8 420.5 73.3 420.5H306.6C345.1 420.5 376.6 389 376.6 350.5C376.7 350 376.7 349.4 376.7 349.4ZM143.3 73.5C143.3 47.8 164.3 26.8 190 26.8C215.7 26.8 236.7 47.8 236.7 73.5V105.6H143.4V73.5H143.3ZM306.7 397.2H73.3C47.6 397.2 27.2 376.8 26.6 351.1L54.6 128.9H120V175.6C112.4 179.7 107.8 187.3 107.8 196C107.8 208.8 118.3 219.3 131.1 219.3C143.9 219.3 154.4 208.8 154.4 196C154.4 187.8 149.7 180.2 143.3 176.2V128.9H236.6V175.6C229 179.7 224.4 187.3 224.4 196C224.4 208.8 234.9 219.3 247.7 219.3C260.5 219.3 271 208.8 271 196C271 187.8 266.3 180.2 259.9 176.2V128.9H325.2L353.2 351.1C352.7 376.8 332.3 397.2 306.7 397.2ZM136.9 196C136.9 199.5 134.6 201.8 131.1 201.8C127.6 201.8 125.3 199.5 125.3 196C125.3 192.5 127.6 190.2 131.1 190.2C134.6 190.1 136.9 192.5 136.9 196ZM253.6 196C253.6 199.5 251.3 201.8 247.8 201.8C244.3 201.8 242 199.5 242 196C242 192.5 244.3 190.2 247.8 190.2C251.3 190.2 253.6 192.5 253.6 196Z" fill="black" stroke="black" stroke-width="5" stroke-miterlimit="10"/>
</svg>
