<?xml version="1.0" encoding="UTF-8"?>
<svg id="Layer_1" data-name="Layer 1" xmlns="http://www.w3.org/2000/svg" viewBox="0 0 192.89 203.8">
  <defs>
    <style>
      .cls-1 {
        fill: #60c199;
      }
    </style>
  </defs>
  <g id="noun-check-4052711">
    <path id="Path_4041" data-name="Path 4041" class="cls-1" d="m189.35,120.89c-4.25,13.85-11.57,26.56-21.41,37.18-6.27,7.89-13.81,14.68-22.32,20.09-10.53,6.62-22.54,10.49-34.95,11.27-13.28.69-26.57-1.17-39.16-5.48-14.99-5.08-28.04-14.69-37.35-27.49-7.54-9.8-13.04-21.01-16.18-32.97-.77-2.11-1.3-4.29-1.6-6.52-.17-11.1-.79-22.26.09-33.3,1.16-17.81,7.59-34.88,18.48-49.02,5.58-7.49,13.14-13.26,21.84-16.65,3.76-1.97,7.31-4.34,10.58-7.05,9.01-5.29,19.14-8.37,29.57-8.99,6.04-.74,12.12-1.12,18.16-1.85,13.48-.88,26.8,3.26,37.41,11.62,9.97,7.18,18.74,15.88,26,25.79,8.2,10.93,12.66,24.22,12.72,37.89.11,4.26,1.39,8.49,1.67,12.77,0,11-1.18,21.97-3.55,32.72m-94.61-5.46c-1.67-.15-3.3-.6-4.81-1.35-4.58-3.62-8.93-7.57-13.32-11.37-3.3-3.4-8.28-4.58-12.76-3.02-4.53,1.83-4.82,6.43-4.18,10.71.27,2.8,1.02,5.53,2.23,8.07,6.8,11.89,16.38,21.95,27.92,29.33,5.19,3.74,12.42,2.68,16.3-2.41,2.39-2.49,4.52-5.23,6.35-8.16,3.35-5.47,6.12-11.33,9.65-16.67,8.82-12.94,16.42-26.67,22.71-41.01,2.27-5.74,3.84-11.74,4.69-17.86.45-4.31-2.39-8.27-6.62-9.22-3.91-1.03-8.02.73-9.98,4.27-9.22,14.13-17.1,28.91-25.22,43.63-2.33,6.44-6.94,11.8-12.97,15.05m-25.23-86.45c-1.98-2.45-5.57-2.83-8.02-.85-.15.12-.28.24-.42.37-3.66,2.35-6.6,5.66-8.51,9.56-.37,1.05-3.68,2.37-.62,3.92,1.44.74,3.94,1.86,4.6,1.27,4.91-4.19,9.26-8.99,12.97-14.27m68.5,100.96c2.52-1.67,3.59-4.84,2.59-7.69-.41-1.38-1.46-2.47-2.82-2.93-1.39,0-2.69.7-3.45,1.86-1.69,3.7-3.13,7.5-4.32,11.38-.76,2.44,1.19,3.48,2.93,2.6s2.83-2.86,5.12-5.27m40.49-31.54c-4.56-3.57-2.78,2.89-4.92,3.12.73,1.05,1.26,2.66,2.23,3.01,1.18.42,3.82.07,3.95-.45.2-1.98-.25-3.97-1.27-5.68m-2.69,17.06c-.89,0-2.23-.36-2.6.07-.78,1.27-1.42,2.62-1.91,4.03,1.53.41,3.35,1.53,4.46,1.12,1.35-.55,3.97-2.14,0-5.16M82.97,26.29c.23-4.07-2.77-2.77-4.59-2.34-.48.11-.33,2.91-.48,4.46,1.78-.48,3.49-1.2,5.08-2.13h-.01Zm48.66,177.51c1.84-.6,2.87-1.82,3.73-1.71,6.99.88,12.05-4.32,18.32-5.69,1.27-.28,2.04-2.91,3.04-4.46-1.68-.96-3.43-1.79-5.23-2.48-1.14-.17-2.31.02-3.35.52-6.12,2.9-12.74,4.61-19.5,5.03-1.98,0-3.98,2.82-5.97,4.36,1.65,1.05,3.27,2.16,4.98,3.14,1.24.63,2.58,1.06,3.95,1.28h.03ZM6.88,86.2c.11-6.98,1.45-13.88,3.95-20.4.94-2.35-.2-5.01-2.55-5.95-.24-.09-.48-.17-.73-.22-3.28-1.21-3.86,1.39-4.61,3.49C.78,69.02-.21,75.29.04,81.57c.2,4.55,2.78,5.26,6.84,4.63ZM192.48,27.64c-1.86-3.35-3.96-6.55-6.31-9.59-1.78-1.08-3.95-1.27-5.89-.51-2.23.87-2.23,2.69-.41,4.88,2.13,2.51,3.06,6.08,5.31,8.43,1.89,1.21,4.13,1.75,6.36,1.53.42,0,.93-2.79.94-4.74h0ZM16.32,48.84c-4.1-3.95-5.51-3.87-7.99,0-.58,1.09-.58,2.39,0,3.48,1.16.94,2.67,1.31,4.13,1.02,1.7-1.07,3.04-2.62,3.84-4.46l.02-.03ZM164.58,9.61c.95,1.35,2.3,2.88,3.76,2.98,1.75.15,3.46-.53,4.63-1.83,1.82-3.92-3.08-3.05-4.18-5.04-1.25,1.12-2.51,2.3-4.21,3.89Z"/>
  </g>
</svg>