<?xml version="1.0" encoding="UTF-8"?>
<svg id="Layer_1" data-name="Layer 1" xmlns="http://www.w3.org/2000/svg" viewBox="0 0 130.31 181.91">
  <defs>
    <style>
      .cls-1 {
        fill: #fff;
      }
    </style>
  </defs>
  <g id="noun-lock-30253">
    <path id="Path_209" data-name="Path 209" class="cls-1" d="m65.14,0C37.74,0,15.53,22.21,15.53,49.61v16.53h27.56v-16.53c0-12.18,9.87-22.05,22.05-22.05s22.05,9.87,22.05,22.05v16.53h27.56v-16.53C114.76,22.21,92.55,0,65.15,0h0Z"/>
    <path id="Path_210" data-name="Path 210" class="cls-1" d="m114.26,71.67H16.03c-8.86,0-16.03,7.18-16.03,16.03v78.18c0,8.86,7.18,16.03,16.03,16.03h98.23c8.86.01,16.04-7.16,16.05-16.02v-78.2c0-8.86-7.18-16.03-16.03-16.03h-.02Zm-39.06,56.87v25.8h-20.12v-25.8c-7.98-5.56-9.95-16.54-4.39-24.52,5.56-7.98,16.54-9.95,24.52-4.39,7.98,5.56,9.95,16.54,4.39,24.52-1.19,1.71-2.68,3.2-4.39,4.39h0Z"/>
  </g>
</svg>