<svg width="445" height="421" viewBox="0 0 445 421" fill="none" xmlns="http://www.w3.org/2000/svg">
<path fill-rule="evenodd" clip-rule="evenodd" d="M23.7 0.999998C17.5 0.899998 11.4 3.29999 7 7.7C2.6 12.1 0 18.1 0 24.3C0 30.5 2.5 36.5 7 40.9C11.4 45.3 17.5 47.7 23.7 47.6H420.4C426.6 47.7 432.7 45.3 437.1 40.9C441.5 36.5 444.1 30.5 444.1 24.3C444.1 18.1 441.6 12.1 437.1 7.7C432.7 3.29999 426.6 0.899998 420.4 0.999998H23.7Z" fill="black"/>
<path fill-rule="evenodd" clip-rule="evenodd" d="M23.7 187.7C17.5 187.6 11.4 190 7 194.4C2.6 198.8 0 204.8 0 211C0 217.2 2.5 223.2 7 227.6C11.4 232 17.5 234.4 23.7 234.3H280.4C286.6 234.4 292.7 232 297.1 227.6C301.5 223.2 304.1 217.2 304.1 211C304.1 204.8 301.6 198.8 297.1 194.4C292.7 190 286.6 187.6 280.4 187.7H23.7Z" fill="black"/>
<path fill-rule="evenodd" clip-rule="evenodd" d="M23.7 374.3C17.5 374.2 11.4 376.6 7 381C2.6 385.4 0 391.4 0 397.6C0 403.8 2.5 409.8 7 414.2C11.4 418.6 17.5 421 23.7 420.9H420.4C426.6 421 432.7 418.6 437.1 414.2C441.5 409.8 444.1 403.8 444.1 397.6C444.1 391.4 441.6 385.4 437.1 381C432.7 376.6 426.6 374.2 420.4 374.3H23.7Z" fill="black"/>
</svg>
