<?xml version="1.0" encoding="UTF-8"?>
<svg id="Layer_1" data-name="Layer 1" xmlns="http://www.w3.org/2000/svg" viewBox="0 0 187.67 187.67">
  <defs>
    <style>
      .cls-1 {
        fill: #fff;
        stroke: #f7b9d4;
        stroke-width: 10px;
      }

      .cls-2 {
        fill: #f7b9d4;
      }
    </style>
  </defs>
  <g id="Group_2591" data-name="Group 2591">
    <g id="Ellipse_13" data-name="Ellipse 13">
      <circle class="cls-1" cx="93.83" cy="93.83" r="88.83"/>
    </g>
    <g id="noun-paw-3176078">
      <path id="Path_15" data-name="Path 15" class="cls-2" d="m126.19,139.88c7.9-7.77,3.7-17.4-1.6-25.05-7.53-10.73-14.31-27.39-28.75-30.11-2.45-.45-4.97-.41-7.4.12-2.36.56-4.55,1.66-6.42,3.21-3.57,3.08-5.43,7.77-8.01,11.72-3.24,4.25-6.78,8.25-10.61,11.97-3.87,3.74-6.53,8.56-7.65,13.82-1,8.1,4.01,15.72,11.84,18.01,9.99,2.47,20.11-5.31,30.23-4.07,4.01.83,7.93,2.03,11.72,3.58,5.71,2.2,12.17.96,16.65-3.21Z"/>
      <ellipse id="Ellipse_14" data-name="Ellipse 14" class="cls-2" cx="77.7" cy="64.37" rx="11.97" ry="18.14" transform="translate(-14.79 24.04) rotate(-16.08)"/>
      <ellipse id="Ellipse_15" data-name="Ellipse 15" class="cls-2" cx="54.88" cy="87.21" rx="11.97" ry="18.14" transform="translate(-22.01 18.61) rotate(-16.08)"/>
      <ellipse id="Ellipse_16" data-name="Ellipse 16" class="cls-2" cx="111.33" cy="64.32" rx="18.14" ry="11.97" transform="translate(18.69 153.48) rotate(-73.92)"/>
      <ellipse id="Ellipse_17" data-name="Ellipse 17" class="cls-2" cx="132.79" cy="85.79" rx="18.14" ry="11.97" transform="translate(13.58 189.63) rotate(-73.92)"/>
    </g>
  </g>
</svg>