<svg width="11" height="12" viewBox="0 0 11 12" fill="none" xmlns="http://www.w3.org/2000/svg">
<path d="M6.34961 1.53125C6.34961 1.08184 5.98652 0.71875 5.53711 0.71875C5.0877 0.71875 4.72461 1.08184 4.72461 1.53125V5.1875H1.06836C0.618945 5.1875 0.255859 5.55059 0.255859 6C0.255859 6.44941 0.618945 6.8125 1.06836 6.8125H4.72461V10.4688C4.72461 10.9182 5.0877 11.2812 5.53711 11.2812C5.98652 11.2812 6.34961 10.9182 6.34961 10.4688V6.8125H10.0059C10.4553 6.8125 10.8184 6.44941 10.8184 6C10.8184 5.55059 10.4553 5.1875 10.0059 5.1875H6.34961V1.53125Z" fill="black"/>
</svg>
