<svg width="390" height="388" viewBox="0 0 390 388" fill="none" xmlns="http://www.w3.org/2000/svg">
<path d="M235.2 0.600006C151.2 0.600006 83 68.8 83 152.8C83 187.8 95.2 221 116.2 247.3L6 357.6C-1 364.6 -1 375.1 6 382.1C9.5 385.6 14.8 387.3 18.2 387.3C21.6 387.3 27 385.5 30.4 382.1L142.4 270.1C168.6 291.1 200.2 303.3 236.9 303.3C320.9 303.3 389.1 235.1 389.1 151.1C389.1 67.1 319.2 0.600006 235.2 0.600006ZM235.2 268.4C170.4 268.4 118 215.9 118 151.2C118 86.5 170.5 34 235.2 34C299.9 34 352.4 86.5 352.4 151.2C352.4 215.9 300 268.4 235.2 268.4Z" fill="black"/>
</svg>
