<?xml version="1.0" encoding="UTF-8"?>
<svg id="Layer_1" data-name="Layer 1" xmlns="http://www.w3.org/2000/svg" viewBox="0 0 203.24 191">
  <defs>
    <style>
      .cls-1 {
        fill: #001C72;
      }
    </style>
  </defs>
  <g id="noun-box-1929224">
    <g id="Group_36" data-name="Group 36">
      <g id="Group_35" data-name="Group 35">
        <path id="Path_175" data-name="Path 175" class="cls-1" d="m11.93,61.62C35.7,44.65,60.42,29.04,85.97,14.89c4.02-3.04,9.49-3.32,13.8-.71,9.55,3.54,19.64,6.14,29.46,8.98,21.3,5.4,42.07,12.68,62.09,21.73,7.43,3.78,14.06-6.61,6.63-10.15-21.02-9.62-42.87-17.31-65.28-22.98-11.15-3.06-21.73-6.85-32.6-10.39-4.88-1.98-10.37-1.81-15.13.47-12.14,5.75-23.85,12.38-35.02,19.83-16.45,9.91-31.84,20.78-47.81,31.63-6.11,4.49,3.18,12.99,9.78,8.26l.04.05Z"/>
      </g>
    </g>
    <g id="Group_38" data-name="Group 38">
      <g id="Group_37" data-name="Group 37">
        <path id="Path_176" data-name="Path 176" class="cls-1" d="m192.38,35.42c-13.96,9.29-27.42,19.3-40.34,29.98-12.82,12.37-26.76,23.52-41.66,33.28-7.16,4.01-.53,14.13,6.63,10.15,13.38-8.42,25.83-18.23,37.15-29.27,14.36-12.09,29.32-23.44,44.85-33.99,6.63-4.72,0-14.88-6.63-10.15Z"/>
      </g>
    </g>
    <g id="Group_40" data-name="Group 40">
      <g id="Group_39" data-name="Group 39">
        <path id="Path_177" data-name="Path 177" class="cls-1" d="m3.44,63.78c33.44,18.89,71.92,28.57,106.68,45.09,7.43,3.54,14.33-6.61,6.63-10.15-34.77-16.53-73.5-26.2-106.68-45.09-2.75-1.91-6.53-1.23-8.44,1.52-1.91,2.75-1.23,6.53,1.52,8.44.09.07.19.13.29.19Z"/>
      </g>
    </g>
    <g id="Group_42" data-name="Group 42">
      <g id="Group_41" data-name="Group 41">
        <path id="Path_178" data-name="Path 178" class="cls-1" d="m0,58.31c.26,29.27.79,58.31,2.17,87.59,0,2.19,1.22,4.21,3.18,5.19,34.23,14.64,69.79,34.94,108,39.66,8.23.95,11.95-10.39,3.44-11.33-37.15-4.49-71.38-24.08-104.55-38.72,1.09,1.65,2.17,3.26,3.18,5.19-1.33-29.04-1.6-58.31-2.17-87.59,0-7.61-13.27-7.61-13.27,0Z"/>
      </g>
    </g>
    <g id="Group_44" data-name="Group 44">
      <g id="Group_43" data-name="Group 43">
        <path id="Path_179" data-name="Path 179" class="cls-1" d="m121.8,185.08c2.92-27.17-2.92-54.33-1.33-81.45.53-7.61-12.74-7.61-13.27,0-1.6,27.17,4.25,54.33,1.33,81.45-1.09,7.61,12.2,7.61,13.27,0Z"/>
      </g>
    </g>
    <g id="Group_46" data-name="Group 46">
      <g id="Group_45" data-name="Group 45">
        <path id="Path_180" data-name="Path 180" class="cls-1" d="m188.93,41.08c.79,14.4,1.33,28.57,1.09,42.97-.26,12.04,2.92,30.22-6.37,39.42-21.51,21.99-45.89,40.99-72.47,56.47-7.43,4.01-.53,14.13,6.63,10.15,29.34-16.36,55.85-37.32,78.54-62.08,9.02-9.68,6.11-24.32,6.63-36.36.53-17,.26-33.76-.79-50.52-.53-7.61-13.8-7.61-13.27,0v-.05Z"/>
      </g>
    </g>
    <g id="Group_48" data-name="Group 48">
      <g id="Group_47" data-name="Group 47">
        <path id="Path_181" data-name="Path 181" class="cls-1" d="m69.8,84.27c22.69-20.6,46.72-39.68,71.92-57.13,6.63-4.72-2.65-12.99-9.29-8.26-25.28,17.44-49.39,36.52-72.18,57.13-5.84,5.43,3.44,13.69,9.55,8.26Z"/>
      </g>
    </g>
  </g>
</svg>