<svg xmlns="http://www.w3.org/2000/svg" xmlns:xlink="http://www.w3.org/1999/xlink" version="1.1" id="Layer_1" x="0px" y="0px" viewBox="0 0 504 34.3" style="enable-background:new 0 0 504 34.3;" xml:space="preserve">
<style type="text/css">
	.st0{fill:#0BB47A;}
	.st1{fill:#FFFFFF;}
	.st2{fill:#025129;}
</style>
<g id="Group_20">
	<g id="Group_15">
		<rect id="Rectangle-path" class="st0" width="34.3" height="34.3"/>
		<path id="Shape" class="st1" d="M17.3,23.4l5.3-1.3l2.2,6.8L17.3,23.4L17.3,23.4z M29.5,14.6h-9.3l-2.9-8.7l-2.9,8.7H5.2l7.5,5.4    l-2.9,8.7l7.5-5.4L22,20L29.5,14.6L29.5,14.6L29.5,14.6z"/>
	</g>
	<g id="Group_16">
		<rect id="Rectangle-path-2" x="38.1" class="st0" width="34.3" height="34.3"/>
		<path id="Shape-2" class="st1" d="M55.4,23.4l5.3-1.3l2.2,6.8L55.4,23.4L55.4,23.4z M67.6,14.6h-9.3l-2.9-8.7l-2.9,8.7h-9.3    l7.5,5.4l-2.9,8.7l7.5-5.4l4.6-3.3L67.6,14.6L67.6,14.6L67.6,14.6z"/>
	</g>
	<g id="Group_17">
		<rect id="Rectangle-path-3" x="76.2" class="st0" width="34.3" height="34.3"/>
		<path id="Shape-3" class="st1" d="M93.6,23.4l5.3-1.3l2.2,6.8L93.6,23.4L93.6,23.4z M105.7,14.6h-9.3l-2.9-8.7l-2.9,8.7h-9.3    l7.5,5.4l-2.9,8.7l7.5-5.4l4.6-3.3L105.7,14.6L105.7,14.6L105.7,14.6z"/>
	</g>
	<g id="Group_18">
		<rect id="Rectangle-path-4" x="114.3" class="st0" width="34.3" height="34.3"/>
		<path id="Shape-4" class="st1" d="M131.6,23.4l5.3-1.3l2.2,6.8L131.6,23.4L131.6,23.4z M143.8,14.6h-9.3l-2.9-8.7l-2.9,8.7h-9.3    L127,20l-2.9,8.7l7.5-5.4l4.6-3.3L143.8,14.6L143.8,14.6L143.8,14.6z"/>
	</g>
	<g id="Group_19">
		<rect id="Rectangle-path-5" x="152.4" class="st0" width="34.3" height="34.3"/>
		<path id="Shape-5" class="st1" d="M169.8,23.4L175,22l2.2,6.8L169.8,23.4L169.8,23.4z M181.9,14.6h-9.3l-2.9-8.7l-2.9,8.7h-9.3    l7.5,5.4l-2.9,8.7l7.5-5.4l4.6-3.3L181.9,14.6L181.9,14.6L181.9,14.6z"/>
	</g>
</g>
<g id="logo-white">
	<path id="Path_161" d="M383.9,5.7h16.5v3.1h-6.5v17.3h-3.6V8.8h-6.5L383.9,5.7L383.9,5.7L383.9,5.7z M399.7,11.4h3v2.8h0.1   c0.1-0.4,0.3-0.8,0.6-1.2c0.3-0.4,0.6-0.7,1-1c0.4-0.3,0.8-0.6,1.3-0.8c0.5-0.2,1-0.3,1.5-0.3c0.4,0,0.6,0,0.8,0s0.3,0,0.5,0.1v3.1   c-0.2,0-0.5-0.1-0.7-0.1c-0.2,0-0.5,0-0.7,0c-0.5,0-1.1,0.1-1.5,0.3s-0.9,0.6-1.3,1c-0.4,0.5-0.7,1-0.9,1.6   c-0.2,0.7-0.3,1.4-0.3,2.2v7h-3.2L399.7,11.4L399.7,11.4L399.7,11.4z M423.2,26.1h-3.2v-2.1H420c-0.4,0.8-1,1.4-1.8,1.8   c-0.7,0.4-1.6,0.7-2.4,0.7c-1.5,0.1-3.1-0.4-4.2-1.4c-1-1.2-1.4-2.8-1.3-4.4v-9.4h3.2v9.1c-0.1,1,0.2,2,0.8,2.8   c0.5,0.6,1.3,0.9,2.1,0.8c0.6,0,1.2-0.1,1.7-0.3c0.4-0.2,0.8-0.5,1.1-0.9s0.5-0.8,0.6-1.3c0.1-0.5,0.2-1.1,0.2-1.6v-8.6h3.2   L423.2,26.1L423.2,26.1z M428.8,21.4c0,0.8,0.4,1.5,1.1,2c0.7,0.4,1.5,0.6,2.3,0.6c0.4,0,0.7,0,1-0.1c0.4,0,0.7-0.1,1.1-0.3   c0.3-0.1,0.6-0.3,0.9-0.6c0.2-0.3,0.3-0.6,0.3-1c0-0.4-0.2-0.8-0.5-1c-0.3-0.3-0.7-0.5-1.1-0.6c-0.5-0.2-1-0.3-1.5-0.4   c-0.6-0.1-1.1-0.2-1.7-0.4c-0.6-0.1-1.2-0.3-1.8-0.5c-0.5-0.2-1-0.4-1.5-0.8c-0.5-0.3-0.8-0.7-1.1-1.2c-0.3-0.6-0.4-1.2-0.4-1.9   c0-0.7,0.2-1.4,0.6-2c0.4-0.5,0.9-1,1.5-1.3c0.6-0.3,1.3-0.6,2-0.7c0.7-0.1,1.4-0.2,2.1-0.2c0.7,0,1.5,0.1,2.2,0.2   c0.7,0.1,1.3,0.4,1.9,0.8c0.6,0.4,1,0.9,1.4,1.4c0.4,0.6,0.6,1.4,0.7,2.1h-3.4c-0.1-0.7-0.5-1.2-1.1-1.6c-0.6-0.3-1.3-0.4-1.9-0.4   c-0.3,0-0.5,0-0.8,0.1c-0.3,0-0.6,0.1-0.9,0.2c-0.3,0.1-0.5,0.3-0.7,0.5c-0.2,0.2-0.3,0.5-0.3,0.8c0,0.4,0.1,0.7,0.4,1   c0.3,0.3,0.7,0.5,1.1,0.6c0.5,0.2,1,0.3,1.5,0.4c0.6,0.1,1.2,0.2,1.8,0.4s1.2,0.3,1.7,0.5c0.5,0.2,1.1,0.4,1.5,0.8   c0.4,0.3,0.8,0.7,1.1,1.2c0.3,0.6,0.4,1.2,0.4,1.8c0,0.8-0.2,1.6-0.6,2.2c-0.4,0.6-0.9,1.1-1.5,1.5c-0.7,0.4-1.4,0.7-2.1,0.8   c-0.8,0.2-1.5,0.3-2.3,0.3c-0.9,0-1.7-0.1-2.6-0.3c-0.7-0.2-1.4-0.5-2.1-1c-0.6-0.4-1-1-1.4-1.6c-0.4-0.7-0.5-1.5-0.5-2.3   L428.8,21.4L428.8,21.4L428.8,21.4z M439.5,11.4h2.5V6.9h3.2v4.4h2.9v2.4h-2.9v7.9c0,0.3,0,0.6,0,0.9c0,0.2,0.1,0.4,0.2,0.6   c0.1,0.2,0.3,0.3,0.5,0.4c0.3,0.1,0.6,0.1,0.9,0.1c0.2,0,0.5,0,0.7,0c0.2,0,0.5,0,0.7-0.1v2.5c-0.4,0-0.7,0.1-1,0.1   c-0.4,0-0.7,0.1-1,0.1c-0.7,0-1.4-0.1-2.1-0.2c-0.5-0.1-0.9-0.4-1.2-0.7c-0.3-0.3-0.5-0.7-0.6-1.2c-0.1-0.5-0.2-1.1-0.2-1.6v-8.7   h-2.5L439.5,11.4L439.5,11.4L439.5,11.4z M450.5,11.4h3.1v2h0.1c0.4-0.8,1.1-1.5,1.9-1.8c0.8-0.4,1.8-0.6,2.7-0.6   c1,0,2.1,0.2,3,0.6c0.8,0.4,1.6,1,2.2,1.7c0.6,0.7,1,1.6,1.3,2.5c0.3,1,0.4,2,0.4,3c0,1-0.1,1.9-0.4,2.9c-0.2,0.9-0.6,1.7-1.2,2.5   c-0.5,0.7-1.2,1.3-2,1.7c-0.9,0.5-1.9,0.7-2.8,0.6c-0.5,0-1,0-1.4-0.1c-0.5-0.1-0.9-0.2-1.4-0.4s-0.8-0.4-1.2-0.7   c-0.4-0.3-0.7-0.6-0.9-1h-0.1v7.4h-3.2L450.5,11.4L450.5,11.4z M461.8,18.8c0-0.7-0.1-1.3-0.3-1.9c-0.2-0.6-0.4-1.2-0.8-1.7   c-0.3-0.5-0.8-0.9-1.3-1.2c-1.6-0.9-3.7-0.4-4.9,1c-0.7,1.1-1.1,2.5-1,3.8c0,0.7,0.1,1.4,0.3,2.1c0.2,0.6,0.4,1.1,0.8,1.6   c0.4,0.5,0.8,0.8,1.3,1.1c1.1,0.6,2.5,0.5,3.6-0.1c0.5-0.3,0.9-0.7,1.3-1.2c0.3-0.5,0.6-1.1,0.7-1.6   C461.8,20,461.8,19.4,461.8,18.8L461.8,18.8L461.8,18.8z M467.6,5.7h3.2v3.1h-3.2V5.7z M467.6,11.4h3.2v14.8h-3.2V11.4   C467.6,11.4,467.6,11.4,467.6,11.4z M473.7,5.7h3.2v20.4h-3.2C473.7,26.1,473.7,5.7,473.7,5.7z M486.9,26.5c-1.1,0-2.1-0.2-3.1-0.6   c-1.8-0.7-3.2-2.2-3.8-4.1c-0.3-1-0.5-2.1-0.5-3.1c0-1.1,0.2-2.1,0.5-3.1c0.3-0.9,0.8-1.8,1.5-2.5c0.7-0.7,1.5-1.2,2.3-1.6   c2-0.8,4.3-0.8,6.3,0c1.8,0.7,3.2,2.2,3.8,4.1c0.3,1,0.5,2,0.5,3.1c0,1.1-0.2,2.1-0.5,3.1c-0.3,0.9-0.8,1.8-1.5,2.5   c-0.7,0.7-1.5,1.2-2.3,1.6C489.1,26.3,488,26.5,486.9,26.5C486.9,26.5,486.9,26.5,486.9,26.5z M486.9,23.9c0.7,0,1.3-0.1,1.9-0.5   c0.5-0.3,1-0.7,1.3-1.2c0.4-0.5,0.6-1.1,0.8-1.7c0.3-1.2,0.3-2.5,0-3.8c-0.1-0.6-0.4-1.2-0.8-1.7c-0.3-0.5-0.8-0.9-1.3-1.2   c-1.2-0.6-2.6-0.6-3.8,0c-0.5,0.3-1,0.7-1.3,1.2c-0.4,0.5-0.6,1.1-0.8,1.7c-0.3,1.2-0.3,2.5,0,3.8c0.1,0.6,0.4,1.2,0.8,1.7   c0.3,0.5,0.8,0.9,1.3,1.2C485.6,23.8,486.3,24,486.9,23.9L486.9,23.9L486.9,23.9z M495.3,11.4h2.5V6.9h3.2v4.4h2.9v2.4H501v7.9   c0,0.3,0,0.6,0,0.9c0,0.2,0.1,0.4,0.2,0.6c0.1,0.2,0.3,0.3,0.5,0.4c0.3,0.1,0.6,0.1,0.9,0.1c0.2,0,0.5,0,0.7,0c0.2,0,0.5,0,0.7-0.1   v2.5c-0.4,0-0.7,0.1-1,0.1c-0.4,0-0.7,0.1-1,0.1c-0.7,0-1.4-0.1-2.1-0.2c-0.5-0.1-0.9-0.4-1.2-0.7c-0.3-0.3-0.5-0.7-0.6-1.2   c-0.1-0.5-0.2-1.1-0.2-1.6v-8.7h-2.5L495.3,11.4L495.3,11.4L495.3,11.4z"/>
	<path id="Path_162" class="st0" d="M379.1,12.3h-10.9l-3.4-10.4l-3.4,10.4h-10.9l8.8,6.4L356,29l8.8-6.4l8.8,6.4l-3.4-10.4   L379.1,12.3z"/>
	<path id="Path_163" class="st2" d="M371,21l-0.8-2.3l-5.4,4L371,21z"/>
</g>
<g>
	<path d="M196.7,25.9V7.4h13.4v2.2h-10.9v5.7h10.2v2.2h-10.2v6.3h11.4v2.2H196.7z"/>
	<path d="M212.1,25.9l4.9-7l-4.5-6.4h2.8l2.1,3.1c0.4,0.6,0.7,1.1,0.9,1.5c0.4-0.6,0.7-1,1-1.5l2.3-3.2h2.7l-4.6,6.3l5,7.1h-2.8   l-2.8-4.2l-0.7-1.1l-3.5,5.3H212.1z"/>
	<path d="M235.3,21l2.2,0.3c-0.2,1.5-0.9,2.7-1.9,3.6c-1,0.9-2.2,1.3-3.7,1.3c-1.8,0-3.3-0.6-4.4-1.8s-1.7-2.9-1.7-5.2   c0-1.4,0.2-2.7,0.7-3.8c0.5-1.1,1.2-1.9,2.2-2.4c1-0.5,2-0.8,3.2-0.8c1.5,0,2.6,0.4,3.6,1.1s1.5,1.8,1.8,3.1l-2.2,0.3   c-0.2-0.9-0.6-1.6-1.1-2c-0.5-0.5-1.2-0.7-1.9-0.7c-1.1,0-2.1,0.4-2.8,1.2c-0.7,0.8-1.1,2.1-1.1,3.9c0,1.8,0.3,3.1,1,3.9   c0.7,0.8,1.6,1.2,2.7,1.2c0.9,0,1.6-0.3,2.2-0.8C234.8,23,235.2,22.1,235.3,21z"/>
	<path d="M248.7,21.6l2.3,0.3c-0.4,1.4-1.1,2.4-2.1,3.2c-1,0.8-2.3,1.1-3.8,1.1c-2,0-3.5-0.6-4.7-1.8c-1.1-1.2-1.7-2.9-1.7-5.1   c0-2.3,0.6-4,1.7-5.3s2.7-1.9,4.5-1.9c1.8,0,3.3,0.6,4.4,1.8c1.1,1.2,1.7,2.9,1.7,5.2c0,0.1,0,0.3,0,0.6h-10   c0.1,1.5,0.5,2.6,1.3,3.4s1.7,1.2,2.8,1.2c0.8,0,1.5-0.2,2.1-0.7C247.9,23.2,248.4,22.5,248.7,21.6z M241.2,17.9h7.5   c-0.1-1.1-0.4-2-0.9-2.5c-0.7-0.9-1.7-1.3-2.8-1.3c-1,0-1.9,0.3-2.6,1C241.7,15.8,241.3,16.7,241.2,17.9z"/>
	<path d="M253.9,25.9V7.4h2.3v18.5H253.9z"/>
	<path d="M259.6,25.9V7.4h2.3v18.5H259.6z"/>
	<path d="M274.6,21.6l2.3,0.3c-0.4,1.4-1.1,2.4-2.1,3.2c-1,0.8-2.3,1.1-3.8,1.1c-2,0-3.5-0.6-4.7-1.8c-1.1-1.2-1.7-2.9-1.7-5.1   c0-2.3,0.6-4,1.7-5.3s2.7-1.9,4.5-1.9c1.8,0,3.3,0.6,4.4,1.8c1.1,1.2,1.7,2.9,1.7,5.2c0,0.1,0,0.3,0,0.6h-10   c0.1,1.5,0.5,2.6,1.3,3.4c0.7,0.8,1.7,1.2,2.8,1.2c0.8,0,1.5-0.2,2.1-0.7C273.8,23.2,274.3,22.5,274.6,21.6z M267.1,17.9h7.5   c-0.1-1.1-0.4-2-0.9-2.5c-0.7-0.9-1.7-1.3-2.8-1.3c-1,0-1.9,0.3-2.6,1C267.6,15.8,267.2,16.7,267.1,17.9z"/>
	<path d="M279.8,25.9V12.5h2v1.9c1-1.5,2.4-2.2,4.3-2.2c0.8,0,1.6,0.1,2.2,0.4s1.2,0.7,1.5,1.1s0.6,1,0.7,1.7   c0.1,0.4,0.1,1.2,0.1,2.2v8.2h-2.3v-8.2c0-0.9-0.1-1.6-0.3-2.1s-0.5-0.8-0.9-1.1c-0.5-0.3-1-0.4-1.6-0.4c-1,0-1.8,0.3-2.5,0.9   c-0.7,0.6-1.1,1.8-1.1,3.5v7.3H279.8z"/>
	<path d="M299.2,23.9l0.3,2c-0.6,0.1-1.2,0.2-1.7,0.2c-0.8,0-1.5-0.1-1.9-0.4c-0.5-0.3-0.8-0.6-1-1c-0.2-0.4-0.3-1.3-0.3-2.7v-7.7   h-1.7v-1.8h1.7V9.2l2.3-1.4v4.7h2.3v1.8h-2.3v7.8c0,0.6,0,1.1,0.1,1.2c0.1,0.2,0.2,0.3,0.4,0.4c0.2,0.1,0.4,0.2,0.8,0.2   C298.4,24,298.7,23.9,299.2,23.9z"/>
	<path d="M315.2,25.9v-4.4h-8v-2.1l8.5-12h1.9v12h2.5v2.1h-2.5v4.4H315.2z M315.2,19.4V11l-5.8,8.4H315.2z"/>
	<path d="M323.6,25.9v-2.6h2.6v2.6H323.6z"/>
	<path d="M333,15.9c-0.9-0.3-1.6-0.8-2.1-1.5c-0.5-0.6-0.7-1.4-0.7-2.3c0-1.3,0.5-2.5,1.5-3.4c1-0.9,2.3-1.4,3.9-1.4   c1.6,0,2.9,0.5,3.9,1.4s1.5,2.1,1.5,3.4c0,0.9-0.2,1.6-0.7,2.2c-0.5,0.6-1.1,1.1-2.1,1.5c1.1,0.4,2,1,2.6,1.8   c0.6,0.8,0.9,1.8,0.9,3c0,1.6-0.6,2.9-1.7,4c-1.1,1.1-2.6,1.6-4.4,1.6s-3.3-0.5-4.4-1.6s-1.7-2.4-1.7-4c0-1.2,0.3-2.2,0.9-3   C331,16.7,331.9,16.2,333,15.9z M331.8,20.6c0,0.6,0.2,1.3,0.5,1.9c0.3,0.6,0.8,1.1,1.4,1.4s1.3,0.5,2,0.5c1.1,0,2-0.3,2.7-1   c0.7-0.7,1.1-1.6,1.1-2.7c0-1.1-0.4-2-1.1-2.7s-1.6-1.1-2.7-1.1c-1.1,0-2,0.4-2.7,1.1C332.2,18.6,331.8,19.5,331.8,20.6z M332.6,12   c0,0.9,0.3,1.6,0.8,2.1c0.6,0.6,1.3,0.8,2.2,0.8c0.9,0,1.6-0.3,2.2-0.8c0.6-0.6,0.8-1.2,0.8-2c0-0.8-0.3-1.5-0.9-2.1   c-0.6-0.6-1.3-0.9-2.2-0.9c-0.9,0-1.6,0.3-2.2,0.8C332.8,10.6,332.6,11.2,332.6,12z"/>
</g>
</svg>